# xmcd
#
# Track frame offsets:
#	150
#	17744
#	30881
#	46628
#	62338
#	81353
#	96047
#	116147
#	141966
#	160477
#	177558
#	198278
#	216127
#	236088
#	255442
#	271817
#	290853
#	313625
#
# Disc length: 4475 seconds
#
# Revision: 1
# Processed by: cddbd v1.5.2PL0 Copyright (c) Steve Scherf et al.
# Submitted via: audiograbber 1.83.01
#
DISCID=fb117912
DTITLE=Various Artist - The Essential Divas - CD 1
DYEAR=1900
DGENRE=
TTITLE0=Carole King - It's too late
TTITLE1=Dolly Parton - I will always love you
TTITLE2=Marcia Hines - From the inside
TTITLE3=Sharon O'Neill - Maybe
TTITLE4=Dionne Warwick - Heartbreaker
TTITLE5=Aretha Franklin - Try a little tenderness
TTITLE6=Bonnie Tyler - Total eclipse of the heart
TTITLE7=Jennifer Rush - The power of love
TTITLE8=Alison Moyet - Invisible
TTITLE9=Cyndie Lauper - True Colors
TTITLE10=Dee.C.Lee - See the day
TTITLE11=Gloria Estefan - Can't stay away from you
TTITLE12=Taylor Dayne - Love will lead you back
TTITLE13=Martika - Love thy will be done
TTITLE14=Grace Knight - Fever
TTITLE15=Sophie B. Hawkins - Damn i wish i was your lover
TTITLE16=Brownstone - If you love me
TTITLE17=Annie Lennox - No more i love you's
EXTD=
EXTT0=
EXTT1=
EXTT2=
EXTT3=
EXTT4=
EXTT5=
EXTT6=
EXTT7=
EXTT8=
EXTT9=
EXTT10=
EXTT11=
EXTT12=
EXTT13=
EXTT14=
EXTT15=
EXTT16=
EXTT17=
PLAYORDER=
